<svg width="20" height="20" viewBox="0 0 20 20" fill="none" xmlns="http://www.w3.org/2000/svg">
<path fill-rule="evenodd" clip-rule="evenodd" d="M3 0C2.20435 0 1.44129 0.31607 0.87868 0.87868C0.31607 1.44129 0 2.20435 0 3V4C0 12.8363 7.16372 20 16 20H17C17.7957 20 18.5587 19.6839 19.1213 19.1213C19.6839 18.5587 20 17.7957 20 17V13.721C20 13.3012 19.868 12.8919 19.6225 12.5513C19.377 12.2108 19.0303 11.956 18.632 11.8232L14.1384 10.3251C13.6818 10.1732 13.1857 10.1912 12.7411 10.3756C12.2969 10.5599 11.9336 10.8989 11.7184 11.3291L11.0396 12.685C9.48897 11.7971 8.20289 10.511 7.31504 8.96041C7.31504 8.96041 9.43996 7.70336 9.62438 7.25885C9.8088 6.81434 9.82647 6.31739 9.67466 5.86071L8.17666 1.36771C8.04404 0.969743 7.78965 0.623547 7.44947 0.3781C7.10921 0.132593 6.69959 0.000318894 6.28 0H3ZM3 2C2.73478 2 2.48043 2.10536 2.29289 2.29289C2.10536 2.48043 2 2.73478 2 3V4C2 11.7317 8.26828 18 16 18H17C17.2652 18 17.5196 17.8946 17.7071 17.7071C17.8946 17.5196 18 17.2652 18 17V13.721L13.5076 12.2229L12.3772 14.4807C12.1369 14.9607 11.5604 15.1653 11.0712 14.9443C8.40096 13.7378 6.26221 11.599 5.0557 8.92875C4.83467 8.43956 5.03931 7.86313 5.51931 7.62281L7.77631 6.49281L6.27934 2.00029L3 2Z" fill="black"/>
</svg>
