<svg width="20" height="16" viewBox="0 0 20 16" fill="none" xmlns="http://www.w3.org/2000/svg">
<path fill-rule="evenodd" clip-rule="evenodd" d="M0.878664 0.87868C1.44127 0.31607 2.20433 0 2.99998 0H17C17.7956 0 18.5587 0.31607 19.1213 0.87868C19.6839 1.44129 20 2.20435 20 3V3.98448C20.0001 3.99422 20.0001 4.00395 20 4.01368V13C20 13.7957 19.6839 14.5587 19.1213 15.1213C18.5587 15.6839 17.7956 16 17 16H2.99998C2.20433 16 1.44127 15.6839 0.878664 15.1213C0.316055 14.5587 -1.57654e-05 13.7956 -1.57654e-05 13V4.01367C-0.000157386 4.00395 -0.000157624 3.99422 -1.57654e-05 3.98449V3C-1.57654e-05 2.20435 0.316055 1.44129 0.878664 0.87868ZM1.99998 5.86852V13C1.99998 13.2652 2.10534 13.5196 2.29288 13.7071C2.48041 13.8946 2.73477 14 2.99998 14H17C17.2652 14 17.5196 13.8946 17.7071 13.7071C17.8946 13.5196 18 13.2652 18 13V5.86852L11.665 10.0919C11.6649 10.0919 11.6648 10.092 11.6647 10.0921C11.1718 10.4208 10.5925 10.5963 9.99998 10.5963C9.40746 10.5963 8.82821 10.4208 8.33528 10.0921C8.33518 10.092 8.33508 10.0919 8.33498 10.0919L1.99998 5.86852ZM18 3.46482L10.5553 8.42795L10.555 8.42815C10.3907 8.53779 10.1975 8.5963 9.99998 8.5963C9.80244 8.5963 9.60931 8.53779 9.44498 8.42815L9.44468 8.42795L1.99998 3.46482V3C1.99998 2.73478 2.10534 2.48043 2.29288 2.29289C2.48041 2.10536 2.73477 2 2.99998 2H17C17.2652 2 17.5196 2.10536 17.7071 2.29289C17.8946 2.48043 18 2.73478 18 3V3.46482Z" fill="black"/>
</svg>
